<?xml version="1.0" encoding="utf-8"?>
<!-- Generator: Adobe Illustrator 23.0.3, SVG Export Plug-In . SVG Version: 6.00 Build 0)  -->
<svg version="1.1" xmlns="http://www.w3.org/2000/svg" xmlns:xlink="http://www.w3.org/1999/xlink" x="0px" y="0px"
	 viewBox="0 0 600 600" style="enable-background:new 0 0 600 600;" xml:space="preserve">
<style type="text/css">
	.st0{fill:#202124;stroke:#202124;stroke-width:0.75;stroke-miterlimit:10;}
	.st1{fill:#DDDDDD;}
	.st2{fill:#EB506E;}
	.st3{fill:none;stroke:#202124;stroke-miterlimit:10;}
	.st4{fill:#5185EC;}
	.st5{fill:#FFFFFF;}
	.st6{fill:#202124;}
	.st7{fill:#709AEE;}
	.st8{fill:#EAEAEA;}
	.st9{fill:#EFEFEF;}
	.st10{fill:none;stroke:#202124;stroke-width:3;stroke-miterlimit:10;}
	.st11{fill:#F7CD5B;}
	.st12{fill:#040844;}
	.st13{fill:none;}
</style>
<g id="background">
	<g id="phone">
		<path class="st0" d="M557.5,529.1c-4.1,3.9-8.3,7.7-12.4,11.6c-79.1,1.2-158.2,2.5-237.3,3.7C255,397.7,202.2,251,149.4,104.2
			c4.1-3.9,8.3-7.7,12.4-11.6c82.7-12.5,165.4-25,248.1-37.5L557.5,529.1z"/>
		<polygon class="st1" points="545.1,540.7 295.4,556.1 149.4,104.2 397.5,66.7 		"/>
		<circle class="st2" cx="280.9" cy="446" r="6.6"/>
		<circle class="st2" cx="301.4" cy="514.6" r="6.8"/>
		<line class="st3" x1="294.6" y1="441.7" x2="450.3" y2="420"/>
		<line class="st3" x1="296.6" y1="449.4" x2="433.6" y2="430.9"/>
		<line class="st3" x1="310.5" y1="497" x2="488.9" y2="471"/>
		<line class="st3" x1="315.3" y1="507.8" x2="486.3" y2="484"/>
		<line class="st3" x1="319.1" y1="521.4" x2="393.9" y2="512.4"/>
		<line class="st3" x1="409.7" y1="510.2" x2="487.8" y2="499.6"/>
		<line class="st3" x1="399.7" y1="442.9" x2="454.8" y2="434.7"/>
		<path class="st4" d="M268.1,407.2c-1.7-0.4-6.7-1.8-9.9-6.4c-2.4-3.6-4-9.3-1.8-10.9c1.6-1.2,5.1,0.3,8.4,2.9
			c1.9-3.9,4.6-6.4,6.6-6c2.5,0.6,3.2,6,2.9,9.2C273.7,402,269.6,405.9,268.1,407.2z"/>
		<g>
			<g>
				<path class="st4" d="M446.7,370.1c1.8,3.5,2.3,7.2,3.9,10.7c0.2,0.5,0.8,0.7,1.3,0.7c3.5,0.1,7.5-1.5,10.9-2.3
					c4-1,8.3-1.7,12.3-3c5.1-1.7,1.9-8.7,1.4-12.9c-0.3-1.9-3.1-1.1-2.9,0.8c0.5,3.4,2.4,7.9-1.1,9.7c-2.9,1.5-7.2,1.8-10.4,2.5
					c-2.4,0.6-7.6,3-9.4,0.7c-0.7-0.8-1.2-3.9-1.6-4.9c-0.5-1.2-1.1-2.3-1.7-3.5C448.4,366.8,445.8,368.4,446.7,370.1L446.7,370.1z"
					/>
			</g>
		</g>
		<g>
			<g>
				<path class="st4" d="M456.6,360.9c0.9,3.3,2.1,6.5,3.5,9.6c0.8,1.8,3.4,0.2,2.6-1.5c-1.3-2.9-2.4-5.8-3.2-8.8
					C458.9,358.2,456.1,359,456.6,360.9L456.6,360.9z"/>
			</g>
		</g>
		<g>
			<g>
				<path class="st4" d="M453.7,367.6c1.6,1.3,3.2,2.6,4.8,3.9c1,0.8,2.3,1.7,3.7,1.1c1.3-0.5,1.8-2.1,2.3-3.3
					c0.8-1.9,1.5-3.9,2-5.9c0.5-1.9-2.4-2.7-2.9-0.8c-0.3,1.2-0.6,2.3-1,3.5c-0.2,0.5-1,3.5-1.6,3.7c0,0-1.7-1.5-2-1.8
					c-1-0.8-2.1-1.7-3.1-2.5C454.4,364.3,452.2,366.4,453.7,367.6L453.7,367.6z"/>
			</g>
		</g>
		<path class="st4" d="M427.4,379.6c2,2.6,4.1,5.2,6.1,7.7c-3.6-0.9-7.2-1.8-10.8-2.7c-1.1,0.7-2.9,1.6-5.2,1.7
			c-5.1,0.1-10.5-4.2-10.9-9.7c-0.5-6.7,6.6-12.1,12.8-11.4c4.1,0.5,8.6,3.7,9.3,8.4C429.1,376.3,428,378.5,427.4,379.6z"/>
	</g>
	<g id="screen">
		<path class="st5" d="M476.2,353.3l-223.7,31.9L164.2,112c27.4-3.8,54.9-7.7,82.3-11.5c0.6,2.1,1.2,4.3,1.8,6.4
			c16.9-2.8,33.8-5.6,50.7-8.4c-0.6-2.4-1.2-4.7-1.8-7.1c31.4-4.1,62.7-8.3,94.1-12.4C419.7,170.4,448,261.8,476.2,353.3z"/>
		<g>
			<g>
				<path class="st6" d="M253.4,103.7c7.6-1.4,15.2-2.8,22.8-4c1.9-0.3,1.1-3.2-0.8-2.9c-7.6,1.3-15.2,2.6-22.8,4
					C250.7,101.2,251.5,104,253.4,103.7L253.4,103.7z"/>
			</g>
		</g>
		<g>
			<g>
				<path class="st6" d="M288.7,97.9c1.9,0,1.9-3,0-3C286.8,94.9,286.8,97.9,288.7,97.9L288.7,97.9z"/>
			</g>
		</g>
		<g>
			<g>
				<path class="st7" d="M300,135.7c30-4.8,60-9.6,90-14.3c1.9-0.3,1.1-3.2-0.8-2.9c-30,4.8-60,9.6-90,14.3
					C297.3,133.2,298.2,136,300,135.7L300,135.7z"/>
			</g>
		</g>
		<g>
			<g>
				<path class="st7" d="M303.9,144c10-1.1,19.8-2.6,29.6-4.6c1.9-0.4,1.1-3.3-0.8-2.9c-9.6,1.9-19.2,3.4-28.9,4.5
					C302,141.2,302,144.2,303.9,144L303.9,144z"/>
			</g>
		</g>
		<g>
			<g>
				<path class="st7" d="M304.3,155.6c27.9-3.8,55.7-8.3,83.4-13.5c1.9-0.4,1.1-3.2-0.8-2.9c-27.7,5.2-55.5,9.7-83.4,13.5
					C301.6,153,302.4,155.8,304.3,155.6L304.3,155.6z"/>
			</g>
		</g>
		<g>
			<g>
				<path class="st7" d="M330,95.7c18.3-2,36.5-4.7,54.6-8.1c1.9-0.4,1.1-3.3-0.8-2.9c-17.8,3.4-35.7,6-53.8,8
					C328.1,92.9,328.1,95.9,330,95.7L330,95.7z"/>
			</g>
		</g>
	</g>
	<g id="comment">
		<path class="st8" d="M213.9,191c12.9,14.9,25.9,29.7,38.8,44.6c-20.6-4.9-41.1-9.9-61.7-14.8c-6.3,4.1-17,9.7-30.5,10.1
			c-30,0.8-63.5-24.4-65.8-58.5c-2.6-39.7,38.2-73.5,75.1-66.8c26.1,4.8,47.6,29.4,49.7,55.8C220.6,174.2,216.9,184.8,213.9,191z"/>
		<g>
			<g>
				<path class="st9" d="M108.3,106.7C96.9,91.4,85.8,75.8,75,59.9c-1.1-1.6-3.7-0.1-2.6,1.5c10.8,15.8,21.8,31.4,33.2,46.8
					C106.8,109.8,109.4,108.3,108.3,106.7L108.3,106.7z"/>
			</g>
		</g>
		<g>
			<g>
				<path class="st9" d="M80.5,138.4c-12.8-3.1-25.6-6.6-38.2-10.4c-1.9-0.6-2.6,2.3-0.8,2.9c12.6,3.9,25.4,7.3,38.2,10.4
					C81.6,141.8,82.4,138.9,80.5,138.4L80.5,138.4z"/>
			</g>
		</g>
		<g>
			<g>
				<path class="st9" d="M42.1,212.6c12.3-5.9,24.2-12.6,35.6-20.1c1.6-1.1,0.1-3.7-1.5-2.6c-11.4,7.5-23.2,14.3-35.6,20.1
					C38.8,210.9,40.3,213.4,42.1,212.6L42.1,212.6z"/>
			</g>
		</g>
		<g>
			<g>
				<path class="st9" d="M108.9,237.5c-5.5,13-11.3,25.8-17.2,38.6c-0.8,1.7,1.8,3.3,2.6,1.5c5.9-12.8,11.7-25.7,17.2-38.6
					C112.2,237.2,109.7,235.7,108.9,237.5L108.9,237.5z"/>
			</g>
		</g>
		<path class="st2" d="M176,152.5c0.6-1.6,1-3.4,1-5.3c0-8.3-6.7-15.1-15.1-15.1c-8.3,0-15.1,6.7-15.1,15.1c0,4.4,1.9,8.4,5,11.2
			c-0.6,0.5-1.1,0.8-1.4,1c-10.4,8.2-15.3,22.3-12.7,36.5c22.6-5.3,45.1-10.5,67.7-15.8C200.9,165.3,189.4,154.6,176,152.5z"/>
		<line class="st10" x1="109.1" y1="175.3" x2="127.6" y2="168.5"/>
		<line class="st10" x1="114.1" y1="160.6" x2="122.6" y2="181.9"/>
	</g>
</g>
<g id="character">
	<g id="hand_right">
		<path class="st11" d="M175.1,290.1c-0.4-0.6-1-1.6-1.7-2.7c-1.1-1.9-1.6-3.1-3.5-7.3c-1.1-2.4-2.3-5-4.6-7.3
			c-0.5-0.5-1.1-1.1-1.6-0.9c-0.9,0.3-0.8,2.8-0.6,4.9c0.1,0.6,0.2,1.5-0.3,2.3c-0.8,1.3-2.4,0.9-5,2.2c-1.1,0.6-2.8,1.5-3.3,3.1
			c-0.3,1.2,0.1,2.2,0.5,3.2c0.9,2.1,1.8,2.1,2.9,4.3c0.8,1.7,0.6,2.2,1.3,2.8c0.6,0.5,1.3,0.6,3.5,0.8c1.3,0.1,2.7,0.2,4.4,0.3
			c0.8,1.2,1.7,2.3,2.5,3.5C171.6,296.3,173.4,293.2,175.1,290.1z"/>
		<path class="st12" d="M268.6,260.9c-0.1,0.2-7.1,10.1-7.3,10.3c-12.7,17.9-13.4,19-14.1,20c-5,7-12.6,17.4-24.1,31.5
			c-3.2-1.5-6.5-3.2-9.8-5c-15.6-8.5-28.4-18.4-38.7-28c-0.7,0.5-3.2,2.5-4.1,6.2c-0.8,3.3,0.2,5.9,0.6,6.8c5.9,7,11,13,14.8,17.6
			c13.7,16.1,13.1,15.4,13.3,15.6c3.2,4.4,5.2,7.6,9.6,11.1c2.6,2.1,5.5,4.4,9.7,5.4c6,1.4,11.2-0.6,16.6-2.8c1.8-0.7,6-2.5,15.2-9
			c7.4-5.1,13-9,19.6-15.6c3.4-3.4,8-8,12.5-15c6.2-9.5,11.4-17.6,10-26.5C290,268.4,270.1,261.4,268.6,260.9z"/>
		<g>
			<path class="st13" d="M268.6,260.9c-7.9,11.2-15.8,22.3-23.6,33.5c-6.9,9.7-13.8,19.5-21.9,28.3"/>
		</g>
		<g>
			<path class="st13" d="M222.5,322.7c-17.2-8.7-33.1-19.7-47.4-32.6"/>
		</g>
		<g>
			<path class="st13" d="M174.6,290.2c-2.9,2.1-4.8,5.6-4.7,9.2"/>
		</g>
		<g>
			<path class="st13" d="M172.3,304.4c9.7,11.6,19.4,23.2,29.1,34.8c4.7,5.6,9.9,11.5,17,13.2c7.9,1.8,15.8-2,22.8-6.1
				c18.9-11.1,36.9-25.5,46.3-45.2"/>
		</g>
		<g>
			<path class="st13" d="M174.5,289.7c-2.1-4.9-4.4-9.7-7.1-14.3c-0.9-1.5-2-3.2-3.7-3.6c-1.1,2.3-0.9,5.1,0.4,7.3"/>
		</g>
		<g>
			<g>
				<path class="st6" d="M161.6,279.1c-2.7,1-7.6,3-7.6,6.6c0,3.7,4,3,6.1,1.7c0.4-0.2,0-0.9-0.4-0.6c-1,0.6-2.3,1.3-3.5,0.9
					c-2.1-0.6-1.7-3-0.5-4.3c1.5-1.7,4-2.8,6.1-3.6C162.3,279.7,162.1,279,161.6,279.1L161.6,279.1z"/>
			</g>
		</g>
		<g>
			<g>
				<path class="st6" d="M157.8,285.7c1.5-0.8,3.2-1,4.8-0.5c0.5,0.1,0.7-0.6,0.2-0.7c-1.8-0.6-3.7-0.4-5.4,0.5
					C157,285.3,157.4,285.9,157.8,285.7L157.8,285.7z"/>
			</g>
		</g>
		<g>
			<g>
				<path class="st6" d="M156.6,290.2c2.7,1.4,5.1-0.5,7.1-2.2c0.4-0.3-0.2-0.9-0.5-0.5c-1.7,1.5-3.8,3.4-6.2,2.1
					C156.6,289.4,156.2,290,156.6,290.2L156.6,290.2z"/>
			</g>
		</g>
		<g>
			<g>
				<path class="st6" d="M157.9,292.3c2.2,1.1,4.9,0.3,6.2-1.8c0.3-0.4-0.4-0.8-0.6-0.4c-1.1,1.7-3.3,2.4-5.1,1.5
					C157.9,291.5,157.5,292.1,157.9,292.3L157.9,292.3z"/>
			</g>
		</g>
		<g>
			<g>
				<path class="st6" d="M159.1,295c0.6,1.1,1.7,1.5,2.9,1.3c1.5-0.2,2.6-1.4,3.5-2.5c0.3-0.4-0.2-0.9-0.5-0.5
					c-1.1,1.3-3.9,3.9-5.2,1.4C159.5,294.2,158.9,294.6,159.1,295L159.1,295z"/>
			</g>
		</g>
	</g>
	<g id="torso">
		<path class="st12" d="M267.8,261c-0.3,1.8-0.6,4-0.6,6.3c0,5.5,1.2,10,2.3,13.1c1.4,4.3,3.4,10.3,5.9,17.4c2.2,6.3,8.9,24.8,19,49
			c3.3,7.9,7.6,17.9,12.9,29.4c22.3-3.3,44.6-6.6,66.9-9.9c-1.7-6.9-3.5-13.7-5.2-20.7c-8.2-33-15.7-65.6-22.6-97.8
			c-2.1,0.3-5.3,0.8-9.1,1.3c-11.7,1.7-26.2,3.9-43.3,7C287.3,257.2,278.4,258.9,267.8,261z"/>
		<g>
			<g>
				<path class="st5" d="M269.2,280.5c10.3,31.1,22.3,61.5,35.9,91.3c0.2,0.4,0.8,0.1,0.6-0.4c-13.6-29.7-25.5-60.1-35.8-91.1
					C269.7,279.9,269,280,269.2,280.5L269.2,280.5z"/>
			</g>
		</g>
		<g>
			<path class="st13" d="M267.7,261c25.1-4.8,50.4-9,75.8-12.6"/>
		</g>
		<g>
			<g>
				<path class="st6" d="M347.8,254.5c7.7,33.6,15.4,67.2,23.1,100.7c0.1,0.5,0.8,0.3,0.7-0.2c-7.7-33.6-15.4-67.2-23.1-100.7
					C348.4,253.9,347.7,254.1,347.8,254.5L347.8,254.5z"/>
			</g>
		</g>
	</g>
	<g id="hand_left">
		<path class="st11" d="M326.9,372.8c-1.3,0.2-1,0.7-4.5,2.8c-3.2,1.9-4.7,2.3-7.3,4.4c-1.5,1.3-2.1,2.1-2.3,3.1
			c-0.3,1.5,0.4,2.7,0.8,3.3c-0.5,1.4-1.1,3.8-1,6.8c0.1,2.7,0.8,4.9,1.5,6.5c0.4,0.9,3.3,7.8,7.1,7.5c1.5-0.1,2.6-1.3,2.8-1.5
			c1.1-1.2,0.8-2.3,1.5-4.4c0.4-1.1,1.2-2.3,2.9-4.6c2.4-3.3,2.4-3,3.7-4.9c1-1.6,2.5-3.9,3.3-7.2c0.5-2,0.8-3.3,0.5-4.8
			C335,375.8,330.4,372.3,326.9,372.8z"/>
		<path class="st12" d="M324.4,255.1c1.4-2.8,4-4.8,9.1-9c5.2-4.2,7.9-6.3,11.7-6.8c5.9-0.7,10.6,2.5,12.4,3.7c3.9,2.7,6,6,8.6,10.5
			c4.6,8.2,7.5,14.5,10.9,22.4c5.5,12.7,4.4,9.7,7.7,17.5c3.4,8.1,6.9,16.4,10.8,27.3c2.6,7.1,5.7,16.5,8.9,27.6
			c-1.3,1.2-3.6,3.1-6.5,5.3c-4.1,3.1-9.8,6.9-37.7,19.9c-3.7,1.8-7.6,3.5-12.5,5.7c-4.6,2-8.9,3.8-12.6,5.2c0-1.2-0.3-2.8-1-4.5
			c-2.1-4.8-6.6-6.6-7.8-7c3.8-3.6,7.6-7.1,11.3-10.7c9.1-8.7,18.2-17.4,27.2-26c-2.6-4.6-5.2-9.3-8-13.9
			c-9-15.5-18.3-30.3-27.5-44.3C328.4,276.6,319.8,264.4,324.4,255.1z"/>
		<g>
			<path class="st13" d="M324.4,255.1c4.2-5.1,9.3-9.6,14.9-13.1c1.8-1.2,3.8-2.2,5.9-2.6c2.6-0.5,5.3,0,7.8,1
				c8.3,3.5,12.9,12.1,16.8,20.2c13.3,27.7,24.9,56.2,34.5,85.3"/>
		</g>
		<g>
			<g>
				<path class="st5" d="M331.8,282.1c11.1,17.2,21.7,34.7,31.8,52.5c0.2,0.4,0.9,0,0.6-0.4c-10.1-17.8-20.7-35.3-31.8-52.5
					C332.2,281.3,331.5,281.6,331.8,282.1L331.8,282.1z"/>
			</g>
		</g>
		<g>
			<g>
				<path class="st5" d="M375.5,325.2c-15.8,16.3-32,32.2-48.9,47.3c-0.4,0.3,0.2,0.9,0.5,0.5c16.9-15.2,33.1-31.1,48.9-47.3
					C376.4,325.4,375.8,324.8,375.5,325.2L375.5,325.2z"/>
			</g>
		</g>
		<g>
			<path class="st13" d="M326.5,373.2c4.5,1.3,8,5.4,8.8,10"/>
		</g>
		<g>
			<path class="st13" d="M335.7,384c3.4-0.8,6.6-2.1,9.8-3.5c14.9-6.4,29.4-13.5,43.6-21.3c5.5-3,11-6.2,15.4-10.6"/>
		</g>
		<g>
			<path class="st13" d="M325.8,373.9c-3.4,1.5-6.6,3.3-9.7,5.4c-1,0.7-2,1.4-2.7,2.4c-0.7,1-0.9,2.4-0.3,3.5"/>
		</g>
		<g>
			<path class="st13" d="M335.3,384.7c-1.4,3.5-2.8,7-5.2,9.9c-0.6,0.7-1.2,1.4-1.9,2.2c-2.1,2.6-3.6,5.7-4.4,9"/>
		</g>
		<g>
			<g>
				<path class="st6" d="M314.6,382.8c-2.2,4.7-2.9,9.6-2.1,14.8c0.1,0.5,0.8,0.3,0.7-0.2c-0.7-4.9,0-9.7,2.1-14.2
					C315.5,382.7,314.8,382.3,314.6,382.8L314.6,382.8z"/>
			</g>
		</g>
		<g>
			<g>
				<path class="st6" d="M317.6,385.7c-2.7,5.6-3.3,11.6-1.7,17.6c0.1,0.5,0.8,0.3,0.7-0.2c-1.5-5.8-0.9-11.6,1.6-17
					C318.4,385.6,317.8,385.2,317.6,385.7L317.6,385.7z"/>
			</g>
		</g>
		<g>
			<g>
				<path class="st6" d="M319.5,390.6c-2.1,5.1-2,10.5,0.1,15.6c0.2,0.4,0.8,0.1,0.6-0.4c-2.1-4.9-2.1-10.1-0.1-15
					C320.4,390.4,319.7,390.2,319.5,390.6L319.5,390.6z"/>
			</g>
		</g>
		<g>
			<g>
				<path class="st6" d="M323.5,393.4c-2.1,4.2-2.6,8.7-1.5,13.2c0.1,0.5,0.8,0.3,0.7-0.2c-1.1-4.3-0.6-8.7,1.4-12.7
					C324.3,393.4,323.7,393,323.5,393.4L323.5,393.4z"/>
			</g>
		</g>
	</g>
	<g id="head">
		<path class="st0" d="M290.4,243.1c0.8-1,2.1-2.3,4-3.5c1.4-0.9,4.9-3,9.3-2.4c1.2,0.2,4.2,0.6,6.3,3.2c1.7,2.1,1.9,4.4,1.9,5.3
			c0.6,0.2,1.9,0.6,3,1.8c1.9,2,1.6,4.6,1.6,5.1c0.5-0.3,1.3-0.8,1.9-1.7c1.3-1.8,0.9-3.9,0.7-4.6c-0.2-1.2-0.8-2.7-3.4-5.3
			c-2.7-2.8-3.4-2.5-6-4.9c-3.7-3.4-3.5-5.1-6.8-7.1c-0.9-0.5-2.2-1.3-4.2-1.7c-3.6-0.6-8,0.4-10.8,3.6c-0.9,1.1-3,3.5-2.4,6.7
			C286.3,241.4,290.1,242.9,290.4,243.1z"/>
		<path class="st11" d="M293.5,240.1c-0.3,1-0.6,2.5-1,4.2c-0.3,1.9-0.7,3.7-0.6,5.7c0.1,2.2,0.1,4.3,1.4,6.3c2.5,4,7.9,4.6,9.7,4.8
			c1.3,0.1,2.4,0.1,3.2,0c0.4,0.7,0.8,1.4,1.2,2.1c-0.3,0.2-0.7,0.5-1.1,1c-0.6,0.7-1.7,2.3-1.2,3.2c0.6,1,2.8,0.6,3.9,0.4
			c1-0.2,3-0.5,4.8-2.3c1.9-1.8,2.4-4,2.5-4.7c-0.9-1.1-1.7-2.3-2.6-3.4c0.5-0.3,1.7-1.1,2.4-2.7c0.7-1.6,0.4-3.1,0.3-3.7
			c-0.5-2.3-2-3.6-2.6-4.2c-0.7-0.6-1.4-1-1.9-1.3c0-0.7-0.1-2-0.7-3.4c-1-2.2-2.8-3.3-3.6-3.7c-1.9-1.1-3.6-1.2-4.5-1.3
			C298.5,236.8,294.9,239.1,293.5,240.1z"/>
		<g>
			<path class="st13" d="M292.4,245.8c-0.3,2.2-0.6,4.4-0.3,6.6s1.2,4.4,2.8,5.9c1.7,1.6,3.9,2.3,6.2,2.6c2.9,0.4,6,0.3,8.8-0.8
				c2.8-1.1,5.1-3.3,6.2-6.1"/>
		</g>
		<g>
			<g>
				<path class="st6" d="M299.6,244.7c-1.4,3-2.8,6.7-0.2,9.5c0.3,0.3,0.9-0.2,0.5-0.5c-2.4-2.5-1-5.9,0.3-8.6
					C300.5,244.6,299.8,244.2,299.6,244.7L299.6,244.7z"/>
			</g>
		</g>
		<g>
			<path class="st13" d="M306.2,261.1c0.7,0.7,1.4,1.3,2.1,2"/>
		</g>
		<g>
			<path class="st13" d="M305.7,264.2c-0.3,0.5-0.7,1-0.8,1.6c-0.2,0.6-0.1,1.2,0.3,1.7c0.4,0.5,1.1,0.6,1.7,0.7
				c1.9,0.1,3.7-0.7,5.2-1.9s2.6-2.7,3.7-4.2c0.3-0.3,0.5-0.7,0.5-1.1"/>
		</g>
		<g>
			<g>
				<path class="st6" d="M305.8,246.9c0.1-0.1,0.1-0.1,0.2-0.2C305.9,246.8,305.8,246.9,305.8,246.9c-0.2,0-0.2-0.1-0.2,0
					C305.6,247.1,305.8,246.9,305.8,246.9C305.8,246.9,305.7,246.8,305.8,246.9c0,0,0,0.1,0,0.1c-0.1,0.1-0.4-0.2-0.1-0.3
					c0.1,0,0.2,0,0.3,0c0,0,0,0.1,0.1,0.1C306,247,306,247,305.8,246.9c0.1-0.4-0.6-0.6-0.7-0.1c-0.1,0.6,0.4,1.1,1,1
					c0.6-0.1,0.8-0.8,0.5-1.3c-0.6-1.1-2.4-0.3-1.7,0.9c0.3,0.4,0.9,0.7,1.4,0.3c0.4-0.3,0.3-1,0-1.3c-0.9-0.8-1.9,0.9-0.9,1.4
					c0.5,0.3,1-0.2,1-0.8c0-0.3-0.1-0.5-0.3-0.7c-0.3-0.2-0.5,0-0.8,0.2C304.9,246.7,305.5,247.3,305.8,246.9L305.8,246.9z"/>
			</g>
		</g>
		<g>
			<g>
				<path class="st6" d="M296.1,246.4c0.1-0.1,0.1-0.1,0.2-0.2C296.1,246.3,296.1,246.3,296.1,246.4c-0.2,0-0.2-0.1-0.2,0
					C295.9,246.5,296,246.4,296.1,246.4C296,246.4,295.9,246.2,296.1,246.4c0,0,0,0.1,0,0.1c-0.1,0.1-0.4-0.2-0.1-0.3
					c0.1,0,0.2,0,0.3,0c0,0,0,0.1,0.1,0.1C296.3,246.4,296.2,246.5,296.1,246.4c0.1-0.4-0.6-0.6-0.7-0.1c-0.1,0.6,0.4,1.1,1,1
					c0.6-0.1,0.8-0.8,0.5-1.3c-0.6-1.1-2.4-0.3-1.7,0.9c0.3,0.4,0.9,0.7,1.4,0.3c0.4-0.3,0.3-1,0-1.3c-0.9-0.8-1.9,0.9-0.9,1.4
					c0.5,0.3,1-0.2,1-0.8c0-0.3-0.1-0.5-0.3-0.7c-0.3-0.2-0.5,0-0.8,0.2C295.2,246.2,295.7,246.7,296.1,246.4L296.1,246.4z"/>
			</g>
		</g>
		<g>
			<g>
				<path class="st6" d="M295.9,243.7c0.4-0.5,1.1-0.6,1.7-0.3c0.4,0.3,0.8-0.4,0.4-0.6c-0.9-0.6-2.1-0.3-2.7,0.5
					C294.9,243.8,295.6,244.1,295.9,243.7L295.9,243.7z"/>
			</g>
		</g>
		<g>
			<g>
				<path class="st6" d="M305.2,243.8c0.9-0.1,1.7,0.2,2.4,0.8c0.4,0.3,0.9-0.2,0.5-0.5c-0.9-0.8-2-1.1-3.1-0.9
					C304.6,243.2,304.8,243.9,305.2,243.8L305.2,243.8z"/>
			</g>
		</g>
		<g>
			<g>
				<path class="st6" d="M290.5,242.7c-9.5-2.9-2.8-13.1,3-14.7c4.8-1.4,9,0.6,12.1,4.2c4.3,4.9,13.5,9.7,13.2,16.8
					c0,0.5,0.7,0.5,0.8,0c0.3-7.2-6.3-9.7-10.6-14.1c-3.9-4-6.5-8.4-12.8-8.1c-4.2,0.2-8.6,2.6-10.4,6.6c-1.9,4.2,0.1,8.7,4.4,10
					C290.8,243.6,291,242.8,290.5,242.7L290.5,242.7z"/>
			</g>
		</g>
		<g>
			<g>
				<path class="st6" d="M291,243.2c4.7-6.9,20-8.7,20.5,2.4c0,0.2,0.2,0.4,0.4,0.4c3,1.3,4.4,3.6,4.1,6.8c0,0.5,0.7,0.5,0.8,0
					c0.2-3.4-1.6-5-3.5-7.4c-1.5-1.9-1.9-4.4-3.9-6.2c-5.5-4.8-15.1-1.9-18.9,3.7C290.1,243.2,290.7,243.6,291,243.2L291,243.2z"/>
			</g>
		</g>
		<g>
			<g>
				<path class="st6" d="M316.9,253.2c1.4-1.3,2.4-2.9,2.7-4.8c0.1-0.5-0.6-0.7-0.7-0.2c-0.3,1.8-1.2,3.3-2.5,4.5
					C316,253,316.5,253.5,316.9,253.2L316.9,253.2z"/>
			</g>
		</g>
	</g>
</g>
</svg>
